<svg xmlns="http://www.w3.org/2000/svg" viewBox="0 0 32 32">
        <path fill="currentColor" d="M6.444 26.723c-1.837 0-3.333-1.495-3.333-3.333s1.496-3.333 3.333-3.333 3.333 1.495 3.333 3.333-1.495 3.333-3.333 3.333zM6.444 21.389c-1.103 0-2 0.897-2 2s0.897 2 2 2 2-0.897 2-2-0.896-2-2-2zM26.444 26.723c-1.837 0-3.333-1.495-3.333-3.333s1.496-3.333 3.333-3.333 3.333 1.495 3.333 3.333-1.495 3.333-3.333 3.333zM26.444 21.389c-1.103 0-2 0.897-2 2s0.897 2 2 2 2-0.897 2-2-0.896-2-2-2zM20 24.611h-8c-0.368 0-0.667-0.3-0.667-0.667s0.299-0.667 0.667-0.667h8c0.367 0 0.667 0.3 0.667 0.667s-0.3 0.667-0.667 0.667zM31.333 25.277c-0.367 0-0.667-0.3-0.667-0.667v-16h-22.667c-0.368 0-0.667-0.3-0.667-0.667s0.299-0.667 0.667-0.667h23.333c0.367 0 0.667 0.3 0.667 0.667v16.667c0 0.367-0.3 0.667-0.667 0.667zM0.667 25.277c-0.368 0-0.667-0.3-0.667-0.667v-7.943c0-0.252 0.143-0.483 0.368-0.596l2.299-1.149v-2.312c0-2.941 2.392-5.333 5.333-5.333 0.368 0 0.667 0.3 0.667 0.667s-0.299 0.667-0.667 0.667c-2.205 0-4 1.795-4 4v2.723c0 0.251-0.143 0.483-0.368 0.596l-2.299 1.151v7.531c0 0.367-0.299 0.667-0.667 0.667zM10 15.277h-4c-0.368 0-0.667-0.3-0.667-0.667 0-3.1 3.083-4.792 4.667-4.792 0.368 0 0.667 0.299 0.667 0.667v4.125c0 0.367-0.299 0.667-0.667 0.667zM6.736 13.944h2.597v-2.672c-0.973 0.311-2.283 1.205-2.597 2.672zM12 7.944h-1.333c-0.368 0-0.667-0.3-0.667-0.667v-1.333c0-0.367 0.299-0.667 0.667-0.667h1.333c0.368 0 0.667 0.3 0.667 0.667v1.333c0 0.367-0.299 0.667-0.667 0.667zM24.667 19.277h-2.667c-0.367 0-0.667-0.3-0.667-0.667v-2h-2c-0.367 0-0.667-0.3-0.667-0.667v-2.667c0-0.367 0.3-0.667 0.667-0.667h2v-2c0-0.367 0.3-0.667 0.667-0.667h2.667c0.367 0 0.667 0.3 0.667 0.667v2h2c0.367 0 0.667 0.3 0.667 0.667v2.667c0 0.367-0.3 0.667-0.667 0.667h-2v2c0 0.367-0.3 0.667-0.667 0.667zM22.667 17.944h1.333v-2c0-0.367 0.3-0.667 0.667-0.667h2v-1.333h-2c-0.367 0-0.667-0.3-0.667-0.667v-2h-1.333v2c0 0.367-0.3 0.667-0.667 0.667h-2v1.333h2c0.367 0 0.667 0.3 0.667 0.667v2z"></path>
        </svg>